<svg xmlns="http://www.w3.org/2000/svg" viewBox="0 0 64 64" role="img" aria-label="Marta Badea favicon">
  <rect width="64" height="64" rx="14" fill="#10141a"/>
  <path d="M13 43V20h7l6.6 13.5L33.2 20H40v23h-5.2V28.6L28.8 41h-4.4l-6-12.4V43H13Z" fill="#f5f7f6"/>
  <path d="M43 43V20h10.2c2.3 0 4.1.6 5.4 1.7 1.3 1.1 2 2.6 2 4.4 0 1.2-.3 2.2-.9 3-.6.9-1.4 1.5-2.4 1.9 1.3.3 2.3 1 3 1.9.7.9 1.1 2.1 1.1 3.5 0 2-.7 3.6-2.1 4.8-1.4 1.2-3.3 1.8-5.8 1.8H43Zm5.3-13.7h4.1c.9 0 1.6-.2 2.1-.7.5-.4.8-1 .8-1.8s-.3-1.4-.8-1.8c-.5-.4-1.2-.6-2.2-.6h-4v4.9Zm0 9.2h4.7c1 0 1.8-.2 2.3-.7.5-.5.8-1.1.8-2 0-.8-.3-1.5-.8-1.9-.6-.5-1.3-.7-2.3-.7h-4.7v5.3Z" fill="#f5f7f6"/>
  <circle cx="50" cy="14" r="3" fill="#c07821"/>
  <circle cx="57" cy="9" r="1.7" fill="#0b7a75"/>
  <path d="M50 14l7-5" stroke="#0b7a75" stroke-width="1.6" stroke-linecap="round"/>
</svg>
